<svg preserveAspectRatio="none" width="100%" height="100%" overflow="visible" style="display: block;" viewBox="0 0 28 28" fill="none" xmlns="http://www.w3.org/2000/svg">
<g id="service.icon">
<path id="Vector" d="M14 23.3333C16.4754 23.3333 18.8493 22.35 20.5997 20.5997C22.35 18.8493 23.3333 16.4754 23.3333 14C23.3333 11.5246 22.35 9.15068 20.5997 7.40034C18.8493 5.65 16.4754 4.66667 14 4.66667C11.5246 4.66667 9.15068 5.65 7.40034 7.40034C5.65 9.15068 4.66667 11.5246 4.66667 14C4.66667 16.4754 5.65 18.8493 7.40034 20.5997C9.15068 22.35 11.5246 23.3333 14 23.3333Z" stroke="var(--stroke-0, #1F2020)" stroke-width="2.33333" stroke-linecap="round" stroke-linejoin="round"/>
<path id="Vector_2" d="M14 16.3333C14.6188 16.3333 15.2123 16.0875 15.6499 15.6499C16.0875 15.2123 16.3333 14.6188 16.3333 14C16.3333 13.3812 16.0875 12.7877 15.6499 12.3501C15.2123 11.9125 14.6188 11.6667 14 11.6667C13.3812 11.6667 12.7877 11.9125 12.3501 12.3501C11.9125 12.7877 11.6667 13.3812 11.6667 14C11.6667 14.6188 11.9125 15.2123 12.3501 15.6499C12.7877 16.0875 13.3812 16.3333 14 16.3333Z" stroke="var(--stroke-0, #1F2020)" stroke-width="2.33333" stroke-linecap="round" stroke-linejoin="round"/>
<path id="Vector_3" d="M14 2.33333V4.66667" stroke="var(--stroke-0, #1F2020)" stroke-width="2.33333" stroke-linecap="round" stroke-linejoin="round"/>
<path id="Vector_4" d="M14 25.6667V23.3333" stroke="var(--stroke-0, #1F2020)" stroke-width="2.33333" stroke-linecap="round" stroke-linejoin="round"/>
<path id="Vector_5" d="M19.8333 24.1033L18.6667 22.085" stroke="var(--stroke-0, #1F2020)" stroke-width="2.33333" stroke-linecap="round" stroke-linejoin="round"/>
<path id="Vector_6" d="M12.8333 11.9817L8.16667 3.89667" stroke="var(--stroke-0, #1F2020)" stroke-width="2.33333" stroke-linecap="round" stroke-linejoin="round"/>
<path id="Vector_7" d="M24.1033 19.8333L22.085 18.6667" stroke="var(--stroke-0, #1F2020)" stroke-width="2.33333" stroke-linecap="round" stroke-linejoin="round"/>
<path id="Vector_8" d="M3.89667 8.16667L5.915 9.33333" stroke="var(--stroke-0, #1F2020)" stroke-width="2.33333" stroke-linecap="round" stroke-linejoin="round"/>
<path id="Vector_9" d="M16.3333 14H25.6667" stroke="var(--stroke-0, #1F2020)" stroke-width="2.33333" stroke-linecap="round" stroke-linejoin="round"/>
<path id="Vector_10" d="M2.33333 14H4.66667" stroke="var(--stroke-0, #1F2020)" stroke-width="2.33333" stroke-linecap="round" stroke-linejoin="round"/>
<path id="Vector_11" d="M24.1033 8.16667L22.085 9.33333" stroke="var(--stroke-0, #1F2020)" stroke-width="2.33333" stroke-linecap="round" stroke-linejoin="round"/>
<path id="Vector_12" d="M3.89667 19.8333L5.915 18.6667" stroke="var(--stroke-0, #1F2020)" stroke-width="2.33333" stroke-linecap="round" stroke-linejoin="round"/>
<path id="Vector_13" d="M19.8333 3.89667L18.6667 5.915" stroke="var(--stroke-0, #1F2020)" stroke-width="2.33333" stroke-linecap="round" stroke-linejoin="round"/>
<path id="Vector_14" d="M12.8333 16.0183L8.16667 24.1033" stroke="var(--stroke-0, #1F2020)" stroke-width="2.33333" stroke-linecap="round" stroke-linejoin="round"/>
</g>
</svg>
