<svg preserveAspectRatio="none" width="100%" height="100%" overflow="visible" style="display: block;" viewBox="0 0 28 28" fill="none" xmlns="http://www.w3.org/2000/svg">
<g id="step.icon">
<path id="Vector" d="M16.3333 21V7C16.3333 6.38116 16.0875 5.78767 15.6499 5.35008C15.2123 4.9125 14.6188 4.66667 14 4.66667H4.66667C4.04783 4.66667 3.45434 4.9125 3.01675 5.35008C2.57917 5.78767 2.33333 6.38116 2.33333 7V19.8333C2.33333 20.1428 2.45625 20.4395 2.67504 20.6583C2.89383 20.8771 3.19058 21 3.5 21H5.83333" stroke="var(--stroke-0, #1F2020)" stroke-width="2.33333" stroke-linecap="round" stroke-linejoin="round"/>
<path id="Vector_2" d="M17.5 21H10.5" stroke="var(--stroke-0, #1F2020)" stroke-width="2.33333" stroke-linecap="round" stroke-linejoin="round"/>
<path id="Vector_3" d="M22.1667 21H24.5C24.8094 21 25.1062 20.8771 25.325 20.6583C25.5438 20.4395 25.6667 20.1428 25.6667 19.8333V15.575C25.6662 15.3102 25.5757 15.0535 25.41 14.847L21.35 9.772C21.2409 9.63536 21.1025 9.525 20.9449 9.44907C20.7874 9.37314 20.6149 9.33358 20.44 9.33333H16.3333" stroke="var(--stroke-0, #1F2020)" stroke-width="2.33333" stroke-linecap="round" stroke-linejoin="round"/>
<path id="Vector_4" d="M19.8333 23.3333C21.122 23.3333 22.1667 22.2887 22.1667 21C22.1667 19.7113 21.122 18.6667 19.8333 18.6667C18.5447 18.6667 17.5 19.7113 17.5 21C17.5 22.2887 18.5447 23.3333 19.8333 23.3333Z" stroke="var(--stroke-0, #1F2020)" stroke-width="2.33333" stroke-linecap="round" stroke-linejoin="round"/>
<path id="Vector_5" d="M8.16667 23.3333C9.45533 23.3333 10.5 22.2887 10.5 21C10.5 19.7113 9.45533 18.6667 8.16667 18.6667C6.878 18.6667 5.83333 19.7113 5.83333 21C5.83333 22.2887 6.878 23.3333 8.16667 23.3333Z" stroke="var(--stroke-0, #1F2020)" stroke-width="2.33333" stroke-linecap="round" stroke-linejoin="round"/>
</g>
</svg>
